<?xml version="1.0" encoding="UTF-8"?>
<svg version="1.1" xmlns="http://www.w3.org/2000/svg" width="782" height="92">
<path d="M0 0 C1.10923828 0.00515625 2.21847656 0.0103125 3.36132812 0.015625 C5.09866211 0.0465625 5.09866211 0.0465625 6.87109375 0.078125 C8.61422852 0.08585938 8.61422852 0.08585938 10.39257812 0.09375 C19.00007641 0.17386633 19.00007641 0.17386633 21.30859375 1.328125 C21.30859375 1.988125 21.30859375 2.648125 21.30859375 3.328125 C21.92903564 3.30194092 22.54947754 3.27575684 23.1887207 3.2487793 C25.99925423 3.14486085 28.80938432 3.07981928 31.62109375 3.015625 C32.59755859 2.97373047 33.57402344 2.93183594 34.58007812 2.88867188 C37.2361556 2.8430348 39.69040538 2.87709255 42.30859375 3.328125 C45.7536118 6.7202445 46.39141924 11.94253277 47.43359375 16.578125 C48.15938514 21.33285773 48.15938514 21.33285773 50.30859375 25.328125 C50.44958496 24.73273926 50.59057617 24.13735352 50.73583984 23.52392578 C51.37771446 20.83183741 52.03050866 18.14251471 52.68359375 15.453125 C52.9053125 14.51597656 53.12703125 13.57882813 53.35546875 12.61328125 C53.57460938 11.71738281 53.79375 10.82148438 54.01953125 9.8984375 C54.21853027 9.07102051 54.4175293 8.24360352 54.62255859 7.39111328 C55.30859375 5.328125 55.30859375 5.328125 57.30859375 3.328125 C61.10102085 2.84715002 64.92662654 2.95774067 68.74609375 2.953125 C69.80892578 2.92863281 70.87175781 2.90414063 71.96679688 2.87890625 C72.98580078 2.87503906 74.00480469 2.87117187 75.0546875 2.8671875 C75.98982178 2.85896973 76.92495605 2.85075195 77.88842773 2.84228516 C80.30859375 3.328125 80.30859375 3.328125 82.05029297 5.05908203 C83.36132423 7.42321174 84.07229268 9.46696373 84.6953125 12.09375 C84.91123047 12.98320312 85.12714844 13.87265625 85.34960938 14.7890625 C85.56294922 15.70945312 85.77628906 16.62984375 85.99609375 17.578125 C86.22103516 18.51398437 86.44597656 19.44984375 86.67773438 20.4140625 C87.22993422 22.71685335 87.77321209 25.02137671 88.30859375 27.328125 C88.51222534 26.45075684 88.51222534 26.45075684 88.7199707 25.55566406 C89.34367673 22.89402566 89.98221343 20.23616002 90.62109375 17.578125 C90.83443359 16.65773438 91.04777344 15.73734375 91.26757812 14.7890625 C91.48349609 13.89960938 91.69941406 13.01015625 91.921875 12.09375 C92.11563721 11.27680664 92.30939941 10.45986328 92.5090332 9.61816406 C93.43182246 6.97518293 94.32916679 5.31847255 96.30859375 3.328125 C98.62109375 2.81054688 98.62109375 2.81054688 101.30859375 2.796875 C102.76265625 2.78914062 102.76265625 2.78914062 104.24609375 2.78125 C105.25671875 2.79671875 106.26734375 2.8121875 107.30859375 2.828125 C108.31921875 2.81265625 109.32984375 2.7971875 110.37109375 2.78125 C111.34046875 2.78640625 112.30984375 2.7915625 113.30859375 2.796875 C114.19546875 2.80138672 115.08234375 2.80589844 115.99609375 2.81054688 C118.30859375 3.328125 118.30859375 3.328125 120.15527344 5.11547852 C122.03575184 8.72317871 120.59961678 12.04904583 119.55859375 15.765625 C119.16754598 17.26421266 118.77691047 18.76290797 118.38671875 20.26171875 C118.10344727 21.31335205 118.10344727 21.31335205 117.81445312 22.38623047 C117.21598275 24.68364041 116.73567793 26.99308867 116.30859375 29.328125 C117.45328125 28.214375 117.45328125 28.214375 118.62109375 27.078125 C127.53162437 19.82152118 138.32350877 19.25397859 149.30859375 20.328125 C157.24021265 21.97082548 162.68719561 25.59397676 168.30859375 31.328125 C168.41171875 30.235 168.51484375 29.141875 168.62109375 28.015625 C169.48454547 23.38438393 169.48454547 23.38438393 172.30859375 21.328125 C174.63696289 20.97167969 174.63696289 20.97167969 177.34375 21 C178.80458008 21.00773437 178.80458008 21.00773437 180.29492188 21.015625 C181.31005859 21.03625 182.32519531 21.056875 183.37109375 21.078125 C184.89959961 21.08585937 184.89959961 21.08585937 186.45898438 21.09375 C193.99975404 21.17370515 193.99975404 21.17370515 196.30859375 22.328125 C197.45328125 21.8640625 197.45328125 21.8640625 198.62109375 21.390625 C201.43769189 20.2770862 203.32015409 20.24302705 206.30859375 20.328125 C206.28539062 19.26851562 206.2621875 18.20890625 206.23828125 17.1171875 C206.21952431 15.7291737 206.20132403 14.3411523 206.18359375 12.953125 C206.16683594 12.25445312 206.15007812 11.55578125 206.1328125 10.8359375 C206.11515108 8.99915014 206.20556114 7.16210537 206.30859375 5.328125 C209.03093977 2.60577898 210.53622248 3.07024443 214.33984375 3.0625 C215.54253906 3.05992188 216.74523437 3.05734375 217.984375 3.0546875 C219.24636719 3.06242188 220.50835938 3.07015625 221.80859375 3.078125 C223.07058594 3.07039062 224.33257813 3.06265625 225.6328125 3.0546875 C226.83550781 3.05726562 228.03820312 3.05984375 229.27734375 3.0625 C230.38529297 3.06475586 231.49324219 3.06701172 232.63476562 3.06933594 C235.30859375 3.328125 235.30859375 3.328125 237.30859375 5.328125 C237.62744141 7.66650391 237.62744141 7.66650391 237.72265625 10.5546875 C237.76132812 11.5859375 237.8 12.6171875 237.83984375 13.6796875 C237.88625 15.30003906 237.88625 15.30003906 237.93359375 16.953125 C237.97226562 18.04109375 238.0109375 19.1290625 238.05078125 20.25 C238.14525622 22.94253665 238.23081806 25.63506257 238.30859375 28.328125 C238.7675 27.91820313 239.22640625 27.50828125 239.69921875 27.0859375 C240.3128125 26.54710938 240.92640625 26.00828125 241.55859375 25.453125 C242.46351563 24.65261719 242.46351563 24.65261719 243.38671875 23.8359375 C247.84850961 20.33542678 251.50426907 20.06662931 257.05859375 20.203125 C258.10466797 20.21666016 258.10466797 20.21666016 259.171875 20.23046875 C260.88426333 20.25392612 262.59647379 20.28979396 264.30859375 20.328125 C264.34597656 19.35230469 264.38335938 18.37648438 264.421875 17.37109375 C264.52048828 15.46263672 264.52048828 15.46263672 264.62109375 13.515625 C264.67910156 12.25105469 264.73710938 10.98648437 264.796875 9.68359375 C265.30859375 6.328125 265.30859375 6.328125 266.47119141 4.64111328 C269.08624251 2.77242542 271.02672147 2.95587397 274.21875 2.96484375 C275.37310547 2.96548828 276.52746094 2.96613281 277.71679688 2.96679688 C278.92271484 2.98291016 280.12863281 2.99902344 281.37109375 3.015625 C283.18577148 3.01079102 283.18577148 3.01079102 285.03710938 3.00585938 C294.0416945 3.06122575 294.0416945 3.06122575 296.30859375 5.328125 C296.72265625 8.1484375 296.72265625 8.1484375 296.93359375 11.453125 C297.00835938 12.54882812 297.083125 13.64453125 297.16015625 14.7734375 C297.20914063 15.61648437 297.258125 16.45953125 297.30859375 17.328125 C297.72109375 16.80863281 298.13359375 16.28914063 298.55859375 15.75390625 C306.7404593 5.87357308 315.17989865 2.42352462 327.9453125 1.04296875 C338.42913619 0.65467898 348.29376951 3.49008051 356.30859375 10.328125 C359.66659801 13.73031352 362.45346308 17.50458744 365.30859375 21.328125 C365.78167969 20.60367187 366.25476563 19.87921875 366.7421875 19.1328125 C373.7027897 8.9564935 379.92578074 4.17216512 392.11328125 1.796875 C402.92622066 0.21062472 414.31899898 1.42996648 423.5 7.82421875 C430.63009156 13.75312858 434.87815931 20.60638725 437.12109375 29.578125 C437.31246454 32.38489656 436.91522898 34.59826646 436.30859375 37.328125 C436.63859375 37.988125 436.96859375 38.648125 437.30859375 39.328125 C437.41759142 40.69533666 437.46753184 42.06753424 437.4855957 43.43896484 C437.49843094 44.28679535 437.51126617 45.13462585 437.52449036 46.00814819 C437.53557076 47.38470078 437.53557076 47.38470078 437.546875 48.7890625 C437.55494675 49.73117584 437.56301849 50.67328918 437.57133484 51.64395142 C437.58517795 53.63956866 437.59589909 55.6352096 437.60375977 57.63085938 C437.62098612 60.68404896 437.66487155 63.73615958 437.70898438 66.7890625 C437.71911001 68.72655453 437.72762652 70.66405577 437.734375 72.6015625 C437.75188309 73.51521576 437.76939117 74.42886902 437.78742981 75.37020874 C437.76579629 81.68622918 437.76579629 81.68622918 435.47314453 84.9050293 C432.50652735 86.85544792 430.39781764 86.82678206 426.87109375 86.765625 C425.75863281 86.76433594 424.64617188 86.76304688 423.5 86.76171875 C420.04206566 86.29191372 418.2495547 85.10464456 415.30859375 83.328125 C411.74842807 84.52046622 411.74842807 84.52046622 408.30859375 86.328125 C397.59238739 88.95498727 386.43202726 87.45519362 376.84765625 81.90234375 C373.04367571 79.16602318 370.02580568 76.17750857 367.30859375 72.328125 C367.2828125 73.08738281 367.25703125 73.84664063 367.23046875 74.62890625 C367.17375 75.62277344 367.11703125 76.61664063 367.05859375 77.640625 C366.98898437 79.11982422 366.98898437 79.11982422 366.91796875 80.62890625 C366.30859375 83.328125 366.30859375 83.328125 364.6328125 85.16015625 C361.7200627 86.62387422 359.62347366 86.72773317 356.37109375 86.703125 C354.84162109 86.71472656 354.84162109 86.71472656 353.28125 86.7265625 C350.30859375 86.328125 350.30859375 86.328125 347.6484375 84.7265625 C346.87628906 84.26507813 346.10414063 83.80359375 345.30859375 83.328125 C341.74842807 84.52046622 341.74842807 84.52046622 338.30859375 86.328125 C328.04702235 88.86844887 317.21223162 87.66980681 307.99609375 82.453125 C307.10921875 81.751875 306.22234375 81.050625 305.30859375 80.328125 C304.77363281 79.91175781 304.23867188 79.49539062 303.6875 79.06640625 C301.06369772 76.97113968 299.18348452 75.14046116 297.30859375 72.328125 C297.2828125 73.08738281 297.25703125 73.84664063 297.23046875 74.62890625 C297.17375 75.62277344 297.11703125 76.61664063 297.05859375 77.640625 C296.98898437 79.11982422 296.98898437 79.11982422 296.91796875 80.62890625 C296.30859375 83.328125 296.30859375 83.328125 294.58911133 84.97631836 C291.88869553 86.57702517 290.33001675 86.68931344 287.2109375 86.65625 C285.76170898 86.64851563 285.76170898 86.64851563 284.28320312 86.640625 C283.28095703 86.62 282.27871094 86.599375 281.24609375 86.578125 C280.23998047 86.57296875 279.23386719 86.5678125 278.19726562 86.5625 C270.77368821 86.48315649 270.77368821 86.48315649 267.30859375 85.328125 C266.44234375 85.6375 265.57609375 85.946875 264.68359375 86.265625 C258.27627598 88.28274356 252.36350673 87.90900556 246.171875 85.328125 C243.15634107 83.70972524 240.81686897 81.64827958 238.30859375 79.328125 C238.04046875 80.111875 237.77234375 80.895625 237.49609375 81.703125 C236.30859375 84.328125 236.30859375 84.328125 233.30859375 86.328125 C229.51053298 86.76488452 225.69154276 86.65230833 221.87109375 86.640625 C220.82115234 86.65673828 219.77121094 86.67285156 218.68945312 86.68945312 C217.67818359 86.69009766 216.66691406 86.69074219 215.625 86.69140625 C214.70146729 86.69438721 213.77793457 86.69736816 212.82641602 86.70043945 C209.67785318 86.23485637 208.40201432 85.75348457 206.30859375 83.328125 C205.95226917 80.61182057 205.84116758 78.30669576 205.91796875 75.59765625 C205.92362854 74.84723557 205.92928833 74.09681488 205.93511963 73.32365417 C205.95749707 70.92865996 206.00769204 68.53516631 206.05859375 66.140625 C206.07865716 64.51629766 206.09690822 62.89194685 206.11328125 61.26757812 C206.15736581 57.28718293 206.22639948 53.30790829 206.30859375 49.328125 C204.65859375 49.988125 203.00859375 50.648125 201.30859375 51.328125 C201.30448486 52.21072998 201.30037598 53.09333496 201.29614258 54.00268555 C201.26909391 57.2928854 201.21994424 60.58123898 201.15600586 63.87084961 C201.13287872 65.29163202 201.11844249 66.71258458 201.11303711 68.13354492 C201.10370714 70.18254966 201.06264209 72.2288985 201.015625 74.27734375 C200.99991455 75.50799561 200.9842041 76.73864746 200.96801758 78.0065918 C200.12512828 82.25224484 198.73359109 83.74101805 195.30859375 86.328125 C192.78491211 86.95922852 192.78491211 86.95922852 190.1484375 86.95703125 C189.19001953 86.95896484 188.23160156 86.96089844 187.24414062 86.96289062 C186.25478516 86.93904297 185.26542969 86.91519531 184.24609375 86.890625 C183.25287109 86.90158203 182.25964844 86.91253906 181.23632812 86.92382812 C174.0616456 86.85135658 174.0616456 86.85135658 170.671875 84.49609375 C168.9730585 81.79453742 168.59540598 79.48305958 168.30859375 76.328125 C167.90769531 76.71484375 167.50679688 77.1015625 167.09375 77.5 C158.74134944 85.15163226 149.83812602 87.75899648 138.62890625 87.59375 C128.87942974 86.81379188 121.41042148 83.70751989 114.41015625 76.85546875 C111.23008223 73.03110465 109.13552924 68.93392552 107.30859375 64.328125 C107.05464844 65.18535156 106.80070312 66.04257813 106.5390625 66.92578125 C101.54977852 83.50066849 101.54977852 83.50066849 97.30859375 86.328125 C93.82286447 86.75924257 90.31813232 86.65237044 86.80859375 86.640625 C85.36419922 86.66479492 85.36419922 86.66479492 83.890625 86.68945312 C82.96636719 86.69009766 82.04210937 86.69074219 81.08984375 86.69140625 C79.82237305 86.69587769 79.82237305 86.69587769 78.52929688 86.70043945 C75.76469402 86.23693689 74.96588091 85.56333316 73.30859375 83.328125 C72.41723633 81.2434082 72.41723633 81.2434082 71.703125 78.87890625 C71.31157227 77.60756836 71.31157227 77.60756836 70.91210938 76.31054688 C70.52055664 74.98893555 70.52055664 74.98893555 70.12109375 73.640625 C69.84845703 72.74794922 69.57582031 71.85527344 69.29492188 70.93554688 C68.62431722 68.735493 67.96258483 66.53316334 67.30859375 64.328125 C67.17807617 64.88798096 67.04755859 65.44783691 66.91308594 66.0246582 C66.31082589 68.56738749 65.68502829 71.10374828 65.05859375 73.640625 C64.75115234 74.96223633 64.75115234 74.96223633 64.4375 76.31054688 C64.11845703 77.58188477 64.11845703 77.58188477 63.79296875 78.87890625 C63.60444336 79.65919189 63.41591797 80.43947754 63.22167969 81.2434082 C62.03875865 83.94420038 60.87186773 84.89227546 58.30859375 86.328125 C55.88256836 86.71630859 55.88256836 86.71630859 53.2109375 86.7265625 C52.24478516 86.73042969 51.27863281 86.73429687 50.28320312 86.73828125 C49.28095703 86.72667969 48.27871094 86.71507813 47.24609375 86.703125 C46.23998047 86.71472656 45.23386719 86.72632812 44.19726562 86.73828125 C42.7499707 86.73248047 42.7499707 86.73248047 41.2734375 86.7265625 C40.39292725 86.72317871 39.51241699 86.71979492 38.60522461 86.71630859 C35.79803143 86.24182819 34.97906145 85.60655636 33.30859375 83.328125 C32.48071289 81.29785156 32.48071289 81.29785156 31.84375 78.96875 C31.60076172 78.09863281 31.35777344 77.22851562 31.10742188 76.33203125 C30.74293945 74.96884766 30.74293945 74.96884766 30.37109375 73.578125 C30.13197266 72.71574219 29.89285156 71.85335937 29.64648438 70.96484375 C28.85335862 68.08950131 28.07887754 65.20967248 27.30859375 62.328125 C27.1354364 61.68061279 26.96227905 61.03310059 26.78387451 60.3659668 C25.62235275 56.02084085 24.46439128 51.67477686 23.30859375 47.328125 C23.2945752 48.94037964 23.2945752 48.94037964 23.28027344 50.58520508 C23.24040961 54.57195528 23.17466202 58.5579308 23.10107422 62.54418945 C23.07284344 64.26967418 23.05163935 65.99528874 23.03759766 67.72094727 C23.01619633 70.20136074 22.96956458 72.6802099 22.91796875 75.16015625 C22.91674011 75.93212845 22.91551147 76.70410065 22.91424561 77.49946594 C22.83037841 80.56398107 22.70001649 82.77925584 20.89257812 85.3137207 C16.77126182 86.93164108 12.74341825 86.75495295 8.35546875 86.7265625 C7.38127991 86.72943268 6.40709106 86.73230286 5.40338135 86.73526001 C3.34231994 86.73730042 1.28123915 86.73177219 -0.77978516 86.71923828 C-3.91613796 86.70325378 -7.05118849 86.71905217 -10.1875 86.73828125 C-12.19401324 86.73629746 -14.20052567 86.73245098 -16.20703125 86.7265625 C-17.13751282 86.73263519 -18.06799438 86.73870789 -19.02667236 86.7449646 C-26.06078234 86.67000796 -32.46348391 85.79912802 -37.69140625 80.640625 C-38.68140625 79.4959375 -38.68140625 79.4959375 -39.69140625 78.328125 C-39.95953125 79.276875 -40.22765625 80.225625 -40.50390625 81.203125 C-41.69140625 84.328125 -41.69140625 84.328125 -44.69140625 86.328125 C-47.09570312 86.57104492 -47.09570312 86.57104492 -49.91015625 86.55859375 C-50.92464844 86.55666016 -51.93914062 86.55472656 -52.984375 86.55273438 C-54.04269531 86.54048828 -55.10101563 86.52824219 -56.19140625 86.515625 C-57.24972656 86.51498047 -58.30804688 86.51433594 -59.3984375 86.51367188 C-67.2697888 86.46866415 -67.2697888 86.46866415 -70.69140625 85.328125 C-71.68140625 85.823125 -71.68140625 85.823125 -72.69140625 86.328125 C-74.31156265 86.42415306 -75.93559533 86.45887074 -77.55859375 86.4609375 C-79.01072266 86.46287109 -79.01072266 86.46287109 -80.4921875 86.46484375 C-82.01392578 86.45904297 -82.01392578 86.45904297 -83.56640625 86.453125 C-85.07654297 86.45892578 -85.07654297 86.45892578 -86.6171875 86.46484375 C-87.58785156 86.46355469 -88.55851563 86.46226563 -89.55859375 86.4609375 C-90.89059814 86.45924561 -90.89059814 86.45924561 -92.24951172 86.45751953 C-94.69140625 86.328125 -94.69140625 86.328125 -96.84814453 85.76123047 C-98.84646252 85.11572169 -98.84646252 85.11572169 -101.31640625 86.265625 C-107.93440661 88.34906956 -114.53244696 88.02716361 -120.9296875 85.328125 C-123.72992703 83.73863205 -125.59136782 81.75629444 -127.69140625 79.328125 C-127.95953125 80.111875 -128.22765625 80.895625 -128.50390625 81.703125 C-129.69140625 84.328125 -129.69140625 84.328125 -132.69140625 86.328125 C-136.32277018 86.76240632 -139.97437342 86.65233074 -143.62890625 86.640625 C-145.13227539 86.66479492 -145.13227539 86.66479492 -146.66601562 86.68945312 C-147.63216797 86.69009766 -148.59832031 86.69074219 -149.59375 86.69140625 C-150.91620728 86.69587769 -150.91620728 86.69587769 -152.26538086 86.70043945 C-155.19523514 86.25080397 -156.56315048 85.3654245 -158.69140625 83.328125 C-159.30078125 80.62890625 -159.30078125 80.62890625 -159.44140625 77.640625 C-159.498125 76.64675781 -159.55484375 75.65289062 -159.61328125 74.62890625 C-159.6390625 73.86964844 -159.66484375 73.11039062 -159.69140625 72.328125 C-159.8615625 73.08738281 -160.03171875 73.84664063 -160.20703125 74.62890625 C-160.449375 75.62277344 -160.69171875 76.61664063 -160.94140625 77.640625 C-161.1734375 78.62675781 -161.40546875 79.61289063 -161.64453125 80.62890625 C-162.89343705 83.84903276 -163.59198671 84.81386611 -166.69140625 86.328125 C-169.45429781 86.62168223 -171.93744754 86.7480265 -174.69140625 86.703125 C-175.40296875 86.71472656 -176.11453125 86.72632812 -176.84765625 86.73828125 C-179.93134196 86.72102182 -182.30784229 86.52053372 -185.08203125 85.12890625 C-187.08177088 82.89133351 -187.68955887 81.03523741 -188.44140625 78.140625 C-188.68375 77.23957031 -188.92609375 76.33851562 -189.17578125 75.41015625 C-189.3459375 74.72308594 -189.51609375 74.03601563 -189.69140625 73.328125 C-189.7171875 73.93140625 -189.74296875 74.5346875 -189.76953125 75.15625 C-189.82625 75.95546875 -189.88296875 76.7546875 -189.94140625 77.578125 C-190.01101562 78.76148437 -190.01101562 78.76148437 -190.08203125 79.96875 C-190.94001339 83.29068084 -191.83457862 84.3870596 -194.69140625 86.328125 C-197.87088294 86.88791342 -200.9715767 86.84090005 -204.19140625 86.765625 C-205.04605469 86.77271484 -205.90070313 86.77980469 -206.78125 86.78710938 C-212.90277101 86.72503467 -212.90277101 86.72503467 -215.79446411 85.26968384 C-218.1123588 82.89727151 -218.1698849 81.27355384 -218.21130371 78.02709961 C-218.2000647 77.31166992 -218.18882568 76.59624023 -218.17724609 75.85913086 C-218.18294113 74.72212486 -218.18294113 74.72212486 -218.18875122 73.56214905 C-218.19616399 71.0553354 -218.17476728 68.54967945 -218.15234375 66.04296875 C-218.14995988 64.30326982 -218.14905388 62.56356829 -218.14956665 60.8238678 C-218.14643754 57.17790614 -218.12986252 53.53233743 -218.10302734 49.88647461 C-218.069022 45.20646317 -218.06139938 40.52688317 -218.06291771 35.84676266 C-218.06237465 32.25488647 -218.0514182 28.66310514 -218.03691483 25.07126045 C-218.03053844 23.34523804 -218.02660597 21.61920486 -218.02512741 19.89317131 C-218.02080467 17.48450161 -218.00332714 15.07629523 -217.98193359 12.66772461 C-217.98283997 11.95027069 -217.98374634 11.23281677 -217.98468018 10.49362183 C-217.92036466 5.55708341 -217.92036466 5.55708341 -215.69140625 3.328125 C-213.07419792 3.09173807 -210.56606016 2.9758746 -207.9453125 2.95703125 C-206.79493752 2.94348854 -206.79493752 2.94348854 -205.62132263 2.92967224 C-203.99815789 2.91515602 -202.37493444 2.90627959 -200.75170898 2.90258789 C-198.26641468 2.89068491 -195.78359841 2.84151408 -193.29882812 2.79101562 C-191.72266839 2.78155224 -190.14649338 2.7743168 -188.5703125 2.76953125 C-187.82648819 2.74999893 -187.08266388 2.73046661 -186.31629944 2.71034241 C-184.21313477 2.72875977 -184.21313477 2.72875977 -180.69140625 3.328125 C-177.58951382 7.04322346 -176.68204862 11.44597788 -175.56640625 16.078125 C-174.79576545 20.56139752 -174.79576545 20.56139752 -172.69140625 24.328125 C-172.47991943 23.48048584 -172.47991943 23.48048584 -172.26416016 22.61572266 C-171.62211826 20.05964922 -170.96940421 17.50642041 -170.31640625 14.953125 C-169.98382813 13.61894531 -169.98382813 13.61894531 -169.64453125 12.2578125 C-169.31582031 10.98164063 -169.31582031 10.98164063 -168.98046875 9.6796875 C-168.68197021 8.50140381 -168.68197021 8.50140381 -168.37744141 7.29931641 C-167.69140625 5.328125 -167.69140625 5.328125 -165.69140625 3.328125 C-163.06200429 3.12847127 -160.54020462 3.0482839 -157.91015625 3.0625 C-157.14086792 3.06058655 -156.37157959 3.0586731 -155.57897949 3.05670166 C-153.95157545 3.05533992 -152.32416055 3.05903561 -150.69677734 3.06738281 C-148.20124994 3.07808279 -145.70644243 3.06748749 -143.2109375 3.0546875 C-141.63150882 3.0560091 -140.05208059 3.0585715 -138.47265625 3.0625 C-137.72367065 3.05845154 -136.97468506 3.05440308 -136.20300293 3.05023193 C-130.92132868 3.09820257 -130.92132868 3.09820257 -128.69140625 5.328125 C-128.5463293 8.07298093 -128.50488202 10.71293043 -128.56640625 13.453125 C-128.57542969 14.20722656 -128.58445312 14.96132813 -128.59375 15.73828125 C-128.61733755 17.60169754 -128.65320906 19.46495093 -128.69140625 21.328125 C-127.92473633 21.31241455 -127.15806641 21.2967041 -126.36816406 21.28051758 C-122.89265323 21.21813526 -119.41726024 21.17912338 -115.94140625 21.140625 C-114.73484375 21.11548828 -113.52828125 21.09035156 -112.28515625 21.06445312 C-111.125 21.05478516 -109.96484375 21.04511719 -108.76953125 21.03515625 C-107.16706543 21.01159058 -107.16706543 21.01159058 -105.53222656 20.98754883 C-102.36025103 21.36782606 -101.01923383 22.19919408 -98.69140625 24.328125 C-98.69140625 23.668125 -98.69140625 23.008125 -98.69140625 22.328125 C-96.02962404 20.9972339 -94.00401229 21.21543507 -91.02734375 21.23046875 C-89.90585938 21.23369141 -88.784375 21.23691406 -87.62890625 21.24023438 C-86.45328125 21.24861328 -85.27765625 21.25699219 -84.06640625 21.265625 C-82.88304687 21.27013672 -81.6996875 21.27464844 -80.48046875 21.27929688 C-77.55073118 21.29111033 -74.62109353 21.30758242 -71.69140625 21.328125 C-71.71460938 20.19632813 -71.7378125 19.06453125 -71.76171875 17.8984375 C-71.78047526 16.41667325 -71.79867559 14.93490188 -71.81640625 13.453125 C-71.83316406 12.70675781 -71.84992188 11.96039063 -71.8671875 11.19140625 C-71.88480215 9.23618039 -71.79460814 7.28070479 -71.69140625 5.328125 C-69.69140625 3.328125 -69.69140625 3.328125 -67.12524414 3.08520508 C-66.0655542 3.08931396 -65.00586426 3.09342285 -63.9140625 3.09765625 C-62.76099609 3.09958984 -61.60792969 3.10152344 -60.41992188 3.10351562 C-59.21013672 3.11576172 -58.00035156 3.12800781 -56.75390625 3.140625 C-55.54798828 3.14126953 -54.34207031 3.14191406 -53.09960938 3.14257812 C-44.11256378 3.18773916 -44.11256378 3.18773916 -40.69140625 4.328125 C-40.03140625 3.998125 -39.37140625 3.668125 -38.69140625 3.328125 C-34.71835287 3.03296528 -30.73664127 3.05017736 -26.75390625 3.015625 C-25.64337891 2.98662109 -24.53285156 2.95761719 -23.38867188 2.92773438 C-22.32455078 2.91935547 -21.26042969 2.91097656 -20.1640625 2.90234375 C-19.18703369 2.88776123 -18.21000488 2.87317871 -17.20336914 2.8581543 C-14.69140625 3.328125 -14.69140625 3.328125 -12.86767578 5.13891602 C-11.15534848 8.32580662 -11.40434347 10.99386497 -11.50390625 14.578125 C-11.54451172 16.47304688 -11.54451172 16.47304688 -11.5859375 18.40625 C-11.62074219 19.37046875 -11.65554688 20.3346875 -11.69140625 21.328125 C-10.70140625 21.328125 -9.71140625 21.328125 -8.69140625 21.328125 C-8.72621094 20.06355469 -8.76101563 18.79898437 -8.796875 17.49609375 C-8.82501302 15.83595077 -8.85231316 14.17579344 -8.87890625 12.515625 C-8.90404297 11.68224609 -8.92917969 10.84886719 -8.95507812 9.99023438 C-8.96958008 8.78657227 -8.96958008 8.78657227 -8.984375 7.55859375 C-9.00794067 6.45100708 -9.00794067 6.45100708 -9.03198242 5.32104492 C-8.69140625 3.328125 -8.69140625 3.328125 -7.52880859 1.58422852 C-4.95446816 -0.17566805 -3.10073202 -0.02844033 0 0 Z M327.24609375 28.953125 C324.94730061 31.77100047 324.6335299 33.7538273 324.30859375 37.328125 C324.96859375 36.998125 325.62859375 36.668125 326.30859375 36.328125 C327.8452824 36.10344669 329.38827429 35.92015695 330.93359375 35.765625 C331.75085938 35.68183594 332.568125 35.59804688 333.41015625 35.51171875 C334.03664063 35.45113281 334.663125 35.39054687 335.30859375 35.328125 C334.93263166 32.54600556 334.63540916 30.7401966 332.87109375 28.515625 C330.38818303 26.62861286 329.66047622 27.05088426 327.24609375 28.953125 Z M397.24609375 28.953125 C394.94730061 31.77100047 394.6335299 33.7538273 394.30859375 37.328125 C394.96859375 36.998125 395.62859375 36.668125 396.30859375 36.328125 C397.8452824 36.10344669 399.38827429 35.92015695 400.93359375 35.765625 C401.75085938 35.68183594 402.568125 35.59804688 403.41015625 35.51171875 C404.03664063 35.45113281 404.663125 35.39054687 405.30859375 35.328125 C404.93263166 32.54600556 404.63540916 30.7401966 402.87109375 28.515625 C400.38818303 26.62861286 399.66047622 27.05088426 397.24609375 28.953125 Z M323.30859375 42.328125 C324.30859375 45.328125 324.30859375 45.328125 324.30859375 45.328125 Z M140.30859375 43.328125 C138.66787116 46.60957019 139.16584941 50.22602496 139.18359375 53.828125 C139.17972656 54.61316406 139.17585938 55.39820313 139.171875 56.20703125 C139.07051756 60.40082823 139.07051756 60.40082823 140.30859375 64.328125 C140.96859375 64.328125 141.62859375 64.328125 142.30859375 64.328125 C143.2355578 60.39956308 143.44286319 56.73533274 143.43359375 52.703125 C143.43746094 51.01316406 143.43746094 51.01316406 143.44140625 49.2890625 C143.44118892 46.27024418 143.44118892 46.27024418 142.30859375 43.328125 C141.64859375 43.328125 140.98859375 43.328125 140.30859375 43.328125 Z M264.30859375 43.328125 C261.75887417 49.383709 261.22151363 56.06688463 263.30859375 62.328125 C263.96859375 62.328125 264.62859375 62.328125 265.30859375 62.328125 C265.30859375 56.058125 265.30859375 49.788125 265.30859375 43.328125 C264.97859375 43.328125 264.64859375 43.328125 264.30859375 43.328125 Z M-11.69140625 45.328125 C-11.69140625 50.608125 -11.69140625 55.888125 -11.69140625 61.328125 C-10.70140625 61.328125 -9.71140625 61.328125 -8.69140625 61.328125 C-8.69140625 56.048125 -8.69140625 50.768125 -8.69140625 45.328125 C-9.68140625 45.328125 -10.67140625 45.328125 -11.69140625 45.328125 Z " fill="#31243E" transform="translate(342.69140625,2.671875)"/>
<path d="M0 0 C7.59 0 15.18 0 23 0 C23 0.99 23 1.98 23 3 C30.26 3 37.52 3 45 3 C48.41100236 14.93850824 51.43019344 26.85443378 54 39 C56.55067068 31.78328207 58.39938632 24.51559024 60.125 17.0625 C60.64624103 14.82370623 61.16957013 12.58539724 61.6953125 10.34765625 C61.92234863 9.36804932 62.14938477 8.38844238 62.38330078 7.37915039 C63 5 63 5 64 3 C70.27 3 76.54 3 83 3 C86.37160527 13.11481581 86.37160527 13.11481581 87.5703125 18.27734375 C87.82683594 19.36724609 88.08335937 20.45714844 88.34765625 21.58007812 C88.60417969 22.68802734 88.86070312 23.79597656 89.125 24.9375 C89.64624103 27.17629377 90.16957013 29.41460276 90.6953125 31.65234375 C90.92234863 32.63195068 91.14938477 33.61155762 91.38330078 34.62084961 C91.91031939 36.99437151 91.91031939 36.99437151 93 39 C96.45228757 27.02941769 99.83534478 15.05003335 103 3 C108.94 3 114.88 3 121 3 C120.64730082 9.46615161 119.11532255 15.28075593 117.22216797 21.43457031 C115.04249289 28.62458776 113.23281171 35.89323461 111.4375 43.1875 C108.62563336 54.58216495 105.71333068 65.86000796 102 77 C95.4 77 88.8 77 82 77 C80.46593453 73.16483633 79.31970292 69.68287845 78.30859375 65.7109375 C78.00373047 64.52242188 77.69886719 63.33390625 77.38476562 62.109375 C77.07216797 60.87703125 76.75957031 59.6446875 76.4375 58.375 C75.81207597 55.92425492 75.18581371 53.47372356 74.55859375 51.0234375 C74.14565063 49.39801025 74.14565063 49.39801025 73.72436523 47.73974609 C73.21373013 45.80838541 72.63173589 43.89520766 72 42 C71.75092896 43.05743408 71.75092896 43.05743408 71.49682617 44.13623047 C70.73015181 47.38322804 69.95885448 50.62911119 69.1875 53.875 C68.92646484 54.98359375 68.66542969 56.0921875 68.39648438 57.234375 C68.00493164 58.87792969 68.00493164 58.87792969 67.60546875 60.5546875 C67.36981201 61.54968262 67.13415527 62.54467773 66.89135742 63.56982422 C65.71912954 68.08086278 64.33928738 72.53570874 63 77 C56.07 77 49.14 77 42 77 C38.35186724 64.76245956 34.79402971 52.5351322 31.78344727 40.1237793 C30.24783399 33.84427477 28.49516504 27.64852477 26.61083984 21.46508789 C25.55816919 17.99662876 24.63291976 14.57049299 24 11 C23.855625 12.134375 23.71125 13.26875 23.5625 14.4375 C23 18 23 18 22 19 C20.36527118 19.08700342 18.72685945 19.10701063 17.08984375 19.09765625 C16.10048828 19.09443359 15.11113281 19.09121094 14.09179688 19.08789062 C13.05087891 19.07951172 12.00996094 19.07113281 10.9375 19.0625 C9.89271484 19.05798828 8.84792969 19.05347656 7.77148438 19.04882812 C5.18096546 19.03699927 2.59047578 19.01906319 0 19 C0 12.73 0 6.46 0 0 Z " fill="#FAFBE8" transform="translate(338,7)"/>
<path d="M0 0 C10.23 0 20.46 0 31 0 C33.32486917 7.55582482 35.62442535 15.06540106 37.6875 22.6875 C39.00433863 27.96701796 39.00433863 27.96701796 41 33 C44.30341508 22.06082221 47.29897147 11.10422839 50 0 C60.23 0 70.46 0 81 0 C81 24.42 81 48.84 81 74 C73.74 74 66.48 74 59 74 C58.505 53.21 58.505 53.21 58 32 C56.9275 36.33125 55.855 40.6625 54.75 45.125 C52.34053324 54.80871905 49.84679806 64.43475853 47 74 C41.72 74 36.44 74 31 74 C26.64517975 59.0931153 22.76632006 44.06528023 19 29 C18.67 43.85 18.34 58.7 18 74 C12.06 74 6.12 74 0 74 C0 49.58 0 25.16 0 0 Z " fill="#FCFCE9" transform="translate(129,10)"/>
<path d="M0 0 C1.30582031 -0.02900391 2.61164062 -0.05800781 3.95703125 -0.08789062 C5.20613281 -0.09626953 6.45523438 -0.10464844 7.7421875 -0.11328125 C9.46864502 -0.13515503 9.46864502 -0.13515503 11.22998047 -0.1574707 C14.125 0.3125 14.125 0.3125 16.02392578 2.21411133 C17.125 4.3125 17.125 4.3125 17.125 6.3125 C17.8675 7.034375 18.61 7.75625 19.375 8.5 C22.46215834 11.65732103 24.04573378 14.43120307 26.125 18.3125 C26.66125 19.17875 27.1975 20.045 27.75 20.9375 C29.125 23.3125 29.125 23.3125 30.0625 25.875 C31.00588597 28.44477198 31.00588597 28.44477198 33.1875 30.375 C35.30500028 32.49250028 35.48799736 33.49148831 36.125 36.3125 C37.10520375 37.3319119 38.10303008 38.33496356 39.125 39.3125 C39.125 39.9725 39.125 40.6325 39.125 41.3125 C39.785 41.3125 40.445 41.3125 41.125 41.3125 C41.39441406 41.87066406 41.66382812 42.42882813 41.94140625 43.00390625 C43.21563799 45.48928895 44.61585395 47.86100945 46.0625 50.25 C46.56652344 51.08402344 47.07054688 51.91804688 47.58984375 52.77734375 C48.09644531 53.61394531 48.60304688 54.45054688 49.125 55.3125 C50.12576442 56.97870778 51.12576745 58.6453731 52.125 60.3125 C53.115 61.9625 54.105 63.6125 55.125 65.3125 C19.155 65.3125 -16.815 65.3125 -53.875 65.3125 C-51.875 60.3125 -51.875 60.3125 -48.875 58.3125 C-48.21320153 56.33204441 -48.21320153 56.33204441 -47.875 54.3125 C-47.545 53.6525 -47.215 52.9925 -46.875 52.3125 C-46.215 52.3125 -45.555 52.3125 -44.875 52.3125 C-44.75125 51.735 -44.6275 51.1575 -44.5 50.5625 C-43.86083433 48.26150359 -43.08194364 46.37140385 -41.875 44.3125 C-40.885 43.8175 -40.885 43.8175 -39.875 43.3125 C-39.18982471 41.65335653 -38.5258436 39.98540909 -37.875 38.3125 C-36.95721632 36.82831268 -35.997586 35.36926851 -35 33.9375 C-33.06799506 31.11960011 -31.26532699 28.30948842 -29.625 25.3125 C-27.875 22.3125 -27.875 22.3125 -25.875 21.3125 C-25.18459426 19.65552621 -24.5219365 17.9869239 -23.875 16.3125 C-22.36793708 13.57238559 -20.80517857 11.22786797 -18.8125 8.8125 C-16.90805579 6.35515263 -15.92309336 4.21491238 -14.875 1.3125 C-12.10133223 -1.46116777 -3.73560406 0.02749463 0 0 Z " fill="#321D2F" transform="translate(59.875,18.6875)"/>
<path d="M0 0 C0.97259766 0.61488281 0.97259766 0.61488281 1.96484375 1.2421875 C2.92197266 1.82613281 2.92197266 1.82613281 3.8984375 2.421875 C9.48816882 6.48494852 12.80750691 12.77887593 14.96484375 19.2421875 C14.62109375 22.11328125 14.62109375 22.11328125 13.96484375 24.2421875 C6.60690642 25.15379036 -0.62498602 25.35677776 -8.03515625 25.2421875 C-8.2053125 24.68789063 -8.37546875 24.13359375 -8.55078125 23.5625 C-9.94682689 19.17251374 -9.94682689 19.17251374 -12.78515625 15.6796875 C-16.25112461 15.00574921 -18.6344796 15.2705656 -22.03515625 16.2421875 C-26.63860724 20.96678193 -26.80950986 25.97824364 -27.03515625 32.2421875 C-27.09832031 33.15742187 -27.16148437 34.07265625 -27.2265625 35.015625 C-27.50662639 41.4661289 -26.6341946 46.76539001 -23.03515625 52.2421875 C-19.32502226 54.71561016 -17.42455363 54.62722236 -13.03515625 54.2421875 C-9.85012055 52.48203619 -9.20218653 51.74327834 -8.03515625 48.2421875 C-11.66515625 47.9121875 -15.29515625 47.5821875 -19.03515625 47.2421875 C-19.03515625 41.6321875 -19.03515625 36.0221875 -19.03515625 30.2421875 C-7.81515625 30.2421875 3.40484375 30.2421875 14.96484375 30.2421875 C14.96484375 44.1021875 14.96484375 57.9621875 14.96484375 72.2421875 C11.00484375 72.2421875 7.04484375 72.2421875 2.96484375 72.2421875 C2.30484375 70.5921875 1.64484375 68.9421875 0.96484375 67.2421875 C-1.00972349 68.21257585 -2.95564319 69.1965073 -4.86376953 70.29272461 C-9.95476506 73.12719596 -14.11833409 73.91886098 -19.91015625 73.8046875 C-21.09424072 73.78825195 -21.09424072 73.78825195 -22.30224609 73.77148438 C-32.0103743 73.41199804 -38.66637623 69.6111846 -45.27734375 62.55859375 C-52.99240519 52.39185723 -54.10463092 40.5979711 -53.03515625 28.2421875 C-51.49194054 19.98818806 -48.68234816 13.4526164 -43.03515625 7.2421875 C-42.29265625 6.3553125 -41.55015625 5.4684375 -40.78515625 4.5546875 C-30.0181532 -4.49938324 -12.83270635 -6.54039515 0 0 Z " fill="#FBFCE8" transform="translate(690.03515625,11.7578125)"/>
<path d="M0 0 C6.15572954 4.62190989 10.12297781 10.34574891 12.3515625 17.765625 C12.453125 20.5390625 12.453125 20.5390625 12.3515625 22.765625 C4.6589215 23.61363267 -2.91135424 23.88714987 -10.6484375 23.765625 C-10.81859375 23.21132813 -10.98875 22.65703125 -11.1640625 22.0859375 C-12.56010814 17.69595124 -12.56010814 17.69595124 -15.3984375 14.203125 C-18.77042726 13.54746032 -21.33113724 13.9212213 -24.6484375 14.765625 C-28.5955643 18.44053616 -29.71977779 23.77344005 -29.984375 29.0078125 C-30.00805012 30.55195674 -30.02085933 32.09630143 -30.0234375 33.640625 C-30.04792969 34.40503906 -30.07242188 35.16945312 -30.09765625 35.95703125 C-30.12593769 41.5096203 -29.10210803 46.28595177 -25.6484375 50.765625 C-22.2173786 52.86195487 -19.66668647 53.33966057 -15.6484375 52.765625 C-13.07558026 50.59299 -11.15846831 48.78568662 -9.6484375 45.765625 C-13.6084375 45.765625 -17.5684375 45.765625 -21.6484375 45.765625 C-21.6484375 40.155625 -21.6484375 34.545625 -21.6484375 28.765625 C-10.4284375 28.765625 0.7915625 28.765625 12.3515625 28.765625 C12.3515625 42.625625 12.3515625 56.485625 12.3515625 70.765625 C8.3915625 70.765625 4.4315625 70.765625 0.3515625 70.765625 C-0.3084375 69.115625 -0.9684375 67.465625 -1.6484375 65.765625 C-4.16295276 66.97259233 -6.38427651 68.25524816 -8.71875 69.80859375 C-13.07313493 72.29373783 -17.02960369 72.41859917 -21.9609375 72.328125 C-23.22224487 72.31168945 -23.22224487 72.31168945 -24.5090332 72.29492188 C-31.18744442 72.0622021 -36.2665576 70.91881156 -41.6484375 66.765625 C-42.37289062 66.20746094 -43.09734375 65.64929688 -43.84375 65.07421875 C-51.07889149 58.68006234 -55.25750772 49.08816244 -55.8515625 39.48046875 C-56.02354279 25.62172347 -53.54433433 13.9253046 -43.9609375 3.453125 C-32.5850051 -7.04290103 -13.14420715 -7.92355022 0 0 Z " fill="#FBFCE8" transform="translate(762.6484375,13.234375)"/>
<path d="M0 0 C7.59 0 15.18 0 23 0 C23 5.94 23 11.88 23 18 C24.98 18 26.96 18 29 18 C28.98839844 16.78441406 28.97679687 15.56882812 28.96484375 14.31640625 C28.95546722 12.73177236 28.94636687 11.14713682 28.9375 9.5625 C28.92912109 8.76005859 28.92074219 7.95761719 28.91210938 7.13085938 C28.9034857 5.08704779 28.9477185 3.04316098 29 1 C30 0 30 0 32.04125977 -0.11352539 C32.91580811 -0.10828857 33.79035645 -0.10305176 34.69140625 -0.09765625 C35.63564453 -0.09443359 36.57988281 -0.09121094 37.55273438 -0.08789062 C38.54595703 -0.07951172 39.53917969 -0.07113281 40.5625 -0.0625 C41.55958984 -0.05798828 42.55667969 -0.05347656 43.58398438 -0.04882812 C46.05601487 -0.03700023 48.52801472 -0.01906415 51 0 C51 6.27 51 12.54 51 19 C54.63 19 58.26 19 62 19 C62 23.62 62 28.24 62 33 C58.37 33 54.74 33 51 33 C51.495 45.375 51.495 45.375 52 58 C56.95 57.505 56.95 57.505 62 57 C62 62.61 62 68.22 62 74 C54.29802895 75.92549276 43.2437686 77.06509772 36.125 72.8125 C32.09104802 69.61782662 29.98499117 66.02066568 29 61 C28.91879767 58.9023604 28.89244192 56.80231238 28.90234375 54.703125 C28.90556641 53.49785156 28.90878906 52.29257812 28.91210938 51.05078125 C28.92048828 49.79652344 28.92886719 48.54226562 28.9375 47.25 C28.94201172 45.98027344 28.94652344 44.71054687 28.95117188 43.40234375 C28.96295444 40.26818164 28.97940584 37.13411459 29 34 C27.02 34 25.04 34 23 34 C23 47.2 23 60.4 23 74 C15.41 74 7.82 74 0 74 C0 49.58 0 25.16 0 0 Z " fill="#F9FAE7" transform="translate(275,10)"/>
<path d="M0 0 C7.59 0 15.18 0 23 0 C23 24.42 23 48.84 23 74 C15.74 74 8.48 74 1 74 C0.67 73.01 0.34 72.02 0 71 C-0.804375 71.639375 -1.60875 72.27875 -2.4375 72.9375 C-7.4983853 76.29153012 -12.76872318 76.34623261 -18.625 75.4375 C-25.73680451 72.40839808 -29.39912335 68.27173779 -32.2734375 61.1484375 C-35.60263945 51.30402313 -35.97301282 37.42132387 -31.3359375 28.015625 C-28.07945807 23.10234025 -23.96718497 18.24894569 -18 17 C-11.05308988 16.35874676 -7.74150813 17.11078223 -1 20 C-0.67 13.4 -0.34 6.8 0 0 Z M-5 36 C-7.54971958 42.055584 -8.08708012 48.73875963 -6 55 C-5.34 55 -4.68 55 -4 55 C-4 48.73 -4 42.46 -4 36 C-4.33 36 -4.66 36 -5 36 Z " fill="#FAFBE8" transform="translate(612,10)"/>
<path d="M0 0 C7.59 0 15.18 0 23 0 C23 24.42 23 48.84 23 74 C15.41 74 7.82 74 0 74 C0 62.12 0 50.24 0 38 C-9.51920834 37.88597055 -9.51920834 37.88597055 -13 42 C-14.44962183 44.89924366 -14.22126481 47.52300355 -14.31640625 50.7578125 C-14.33718735 51.42086395 -14.35796844 52.08391541 -14.37937927 52.76705933 C-14.44479231 54.88626694 -14.50372105 57.005599 -14.5625 59.125 C-14.60569309 60.56121081 -14.64930764 61.99740902 -14.69335938 63.43359375 C-14.80125909 66.95560344 -14.90039243 70.47770688 -15 74 C-22.26 74 -29.52 74 -37 74 C-37.02463956 66.18546786 -37.04283105 58.37095812 -37.05493164 50.55639648 C-37.05997383 47.89558519 -37.06680736 45.23477668 -37.07543945 42.57397461 C-37.08751009 38.75894484 -37.09322929 34.94395156 -37.09765625 31.12890625 C-37.10281754 29.93100967 -37.10797882 28.7331131 -37.11329651 27.49891663 C-37.11337204 26.3978508 -37.11344757 25.29678497 -37.11352539 24.16235352 C-37.115746 23.18750504 -37.11796661 22.21265656 -37.12025452 21.20826721 C-37 19 -37 19 -36 18 C-34.65732587 17.91368126 -33.31025678 17.89293527 -31.96484375 17.90234375 C-31.15595703 17.90556641 -30.34707031 17.90878906 -29.51367188 17.91210938 C-28.66353516 17.92048828 -27.81339844 17.92886719 -26.9375 17.9375 C-26.08349609 17.94201172 -25.22949219 17.94652344 -24.34960938 17.95117188 C-22.23304337 17.96299627 -20.11651315 17.98093231 -18 18 C-17.34 19.65 -16.68 21.3 -16 23 C-15.4225 22.38125 -14.845 21.7625 -14.25 21.125 C-9.25460133 16.40712348 -7.62311117 17 0 17 C0 11.39 0 5.78 0 0 Z " fill="#FCFDE9" transform="translate(553,10)"/>
<path d="M0 0 C5.52860488 3.87770203 9.03935131 7.96027668 12 14 C12.495 14.99 12.495 14.99 13 16 C13.17878097 18.88980391 13.27779906 21.73325538 13.3125 24.625 C13.34150391 25.40746094 13.37050781 26.18992187 13.40039062 26.99609375 C13.48024419 34.4040477 10.93385275 39.18210028 6.8125 45.1875 C-1.0387172 53.0387172 -9.37431842 54.3486321 -20.06958008 54.3828125 C-28.86657062 54.21287365 -34.72581763 51.66794425 -40.875 45.3125 C-46.0225288 38.82637033 -48.74677642 31.82167376 -48.3046875 23.5 C-47.11344174 13.72567583 -43.42003734 7.5675735 -36 1 C-25.44545189 -6.01784866 -10.91660933 -6.44383189 0 0 Z M-18 15 C-19.64072259 18.28144519 -19.14274434 21.89789996 -19.125 25.5 C-19.12886719 26.28503906 -19.13273437 27.07007813 -19.13671875 27.87890625 C-19.23807619 32.07270323 -19.23807619 32.07270323 -18 36 C-17.34 36 -16.68 36 -16 36 C-15.07303595 32.07143808 -14.86573056 28.40720774 -14.875 24.375 C-14.87113281 22.68503906 -14.87113281 22.68503906 -14.8671875 20.9609375 C-14.86740483 17.94211918 -14.86740483 17.94211918 -16 15 C-16.66 15 -17.32 15 -18 15 Z " fill="#FAFBE8" transform="translate(501,31)"/>
<path d="M0 0 C3.64581687 -0.02887512 7.29160463 -0.04675585 10.9375 -0.0625 C12.49887695 -0.07506836 12.49887695 -0.07506836 14.09179688 -0.08789062 C15.57583008 -0.09272461 15.57583008 -0.09272461 17.08984375 -0.09765625 C18.46450806 -0.10551147 18.46450806 -0.10551147 19.86694336 -0.11352539 C22 0 22 0 23 1 C23.16023562 3.88252645 23.25954029 6.74378527 23.31640625 9.62890625 C23.33718735 10.49313705 23.35796844 11.35736786 23.37937927 12.24778748 C23.44497114 15.01927445 23.50380418 17.79085921 23.5625 20.5625 C23.60567608 22.43685923 23.64929006 24.31120843 23.69335938 26.18554688 C23.80066227 30.79026336 23.90190215 35.39507858 24 40 C27.29075996 39.62095792 27.29075996 39.62095792 30 38 C30.16017166 35.19023482 30.25950534 32.40226404 30.31640625 29.58984375 C30.33718735 28.74780899 30.35796844 27.90577423 30.37937927 27.03822327 C30.44496812 24.33806821 30.50380276 21.63781283 30.5625 18.9375 C30.60567637 17.11131759 30.64929036 15.28514546 30.69335938 13.45898438 C30.8014858 8.97275774 30.90048911 4.48645926 31 0 C38.59 0 46.18 0 54 0 C54 18.48 54 36.96 54 56 C47.07 56 40.14 56 33 56 C32.67 54.35 32.34 52.7 32 51 C31.05125 51.804375 30.1025 52.60875 29.125 53.4375 C24.07762796 57.71679368 19.20269251 57.55826282 12.7265625 57.41796875 C8.27591534 56.91878715 6.24769525 55.87162026 3.19921875 52.703125 C0.7227787 49.18609614 -0.25029643 46.55513519 -0.22705078 42.23144531 C-0.22689972 41.29077209 -0.22674866 40.35009888 -0.22659302 39.38092041 C-0.21627045 38.37349792 -0.20594788 37.36607544 -0.1953125 36.328125 C-0.1924826 35.29057068 -0.18965271 34.25301636 -0.18673706 33.184021 C-0.17554865 29.87256299 -0.15044627 26.56137616 -0.125 23.25 C-0.11496848 21.00391016 -0.10584293 18.75781607 -0.09765625 16.51171875 C-0.0756137 11.00772009 -0.04214932 5.50387942 0 0 Z " fill="#F9FAE7" transform="translate(216,28)"/>
<path d="M0 0 C0.33 0 0.66 0 1 0 C1 24.42 1 48.84 1 74 C0.67 74 0.34 74 0 74 C0 62.12 0 50.24 0 38 C-9.51920834 37.88597055 -9.51920834 37.88597055 -13 42 C-14.44962183 44.89924366 -14.22126481 47.52300355 -14.31640625 50.7578125 C-14.33718735 51.42086395 -14.35796844 52.08391541 -14.37937927 52.76705933 C-14.44479231 54.88626694 -14.50372105 57.005599 -14.5625 59.125 C-14.60569309 60.56121081 -14.64930764 61.99740902 -14.69335938 63.43359375 C-14.80125909 66.95560344 -14.90039243 70.47770688 -15 74 C-22.26 74 -29.52 74 -37 74 C-37.02463956 66.18546786 -37.04283105 58.37095812 -37.05493164 50.55639648 C-37.05997383 47.89558519 -37.06680736 45.23477668 -37.07543945 42.57397461 C-37.08751009 38.75894484 -37.09322929 34.94395156 -37.09765625 31.12890625 C-37.10281754 29.93100967 -37.10797882 28.7331131 -37.11329651 27.49891663 C-37.11337204 26.3978508 -37.11344757 25.29678497 -37.11352539 24.16235352 C-37.115746 23.18750504 -37.11796661 22.21265656 -37.12025452 21.20826721 C-37 19 -37 19 -36 18 C-34.65732587 17.91368126 -33.31025678 17.89293527 -31.96484375 17.90234375 C-31.15595703 17.90556641 -30.34707031 17.90878906 -29.51367188 17.91210938 C-28.66353516 17.92048828 -27.81339844 17.92886719 -26.9375 17.9375 C-26.08349609 17.94201172 -25.22949219 17.94652344 -24.34960938 17.95117188 C-22.23304337 17.96299627 -20.11651315 17.98093231 -18 18 C-17.34 19.65 -16.68 21.3 -16 23 C-15.4225 22.38125 -14.845 21.7625 -14.25 21.125 C-9.25460133 16.40712348 -7.62311117 17 0 17 C0 11.39 0 5.78 0 0 Z " fill="#F4F5E2" transform="translate(553,10)"/>
<path d="M0 0 C1.52877315 -0.00067542 3.05754619 -0.00164741 4.58631897 -0.00289917 C7.77589958 -0.00436541 10.96545199 -0.00225666 14.1550293 0.00244141 C18.21395333 0.00813315 22.27281114 0.00485632 26.33173275 -0.00113106 C29.48471055 -0.00476997 32.63767303 -0.0035828 35.79065132 -0.00100327 C37.28595551 -0.00034293 38.78126116 -0.00113064 40.27656364 -0.00348282 C63.80649604 -0.03238086 63.80649604 -0.03238086 67.66015625 3.4453125 C70.10864526 8.02292239 70.10864526 8.02292239 71.09765625 10.1328125 C72.08765625 11.7828125 73.07765625 13.4328125 74.09765625 15.1328125 C38.12765625 15.1328125 2.15765625 15.1328125 -34.90234375 15.1328125 C-32.90234375 10.1328125 -32.90234375 10.1328125 -29.90234375 8.1328125 C-29.55891926 6.80204261 -29.22614501 5.46849271 -28.90234375 4.1328125 C-27.36200124 2.20736121 -26.38634319 1.26053783 -23.98094177 0.62576294 C-15.99116057 0.02043015 -8.00810038 -0.01257731 0 0 Z " fill="#462243" transform="translate(40.90234375,68.8671875)"/>
<path d="M0 0 C7.59 0 15.18 0 23 0 C23 18.48 23 36.96 23 56 C15.41 56 7.82 56 0 56 C0 37.52 0 19.04 0 0 Z " fill="#F8F9E6" transform="translate(338,28)"/>
<path d="M0 0 C2.475 0.495 2.475 0.495 5 1 C5 6.28 5 11.56 5 17 C5.66 17 6.32 17 7 17 C7 16.01 7 15.02 7 14 C7.66 14 8.32 14 9 14 C9 13.01 9 12.02 9 11 C8.34 11 7.68 11 7 11 C7 10.34 7 9.68 7 9 C12.61 9 18.22 9 24 9 C24.66 10.65 25.32 12.3 26 14 C26.66 14 27.32 14 28 14 C29.00508801 15.78881736 30.00392736 17.58114696 31 19.375 C31.556875 20.37273438 32.11375 21.37046875 32.6875 22.3984375 C34 25 34 25 34 27 C13.54 27 -6.92 27 -28 27 C-26.61327089 20.06635446 -23.888476 12.42889635 -18 8 C-12.14488642 6.28474696 -5.94949551 7.19133071 0 8 C0 5.36 0 2.72 0 0 Z " fill="#53344D" transform="translate(57,42)"/>
<path d="M0 0 C0.93245544 -0.00571014 1.86491089 -0.01142029 2.82562256 -0.01730347 C3.85681717 -0.01842133 4.88801178 -0.01953918 5.95045471 -0.02069092 C7.03003448 -0.02565582 8.10961426 -0.03062073 9.22190857 -0.03573608 C12.81054815 -0.05039976 16.39914355 -0.05716624 19.98780823 -0.06268311 C22.47023521 -0.06843053 24.95266217 -0.0741883 27.43508911 -0.07995605 C32.64643054 -0.09047765 37.85775649 -0.09631291 43.06910706 -0.09979248 C48.43245041 -0.10356203 53.79565674 -0.11766353 59.15895081 -0.14080811 C65.61805808 -0.16825739 72.07703174 -0.18119586 78.53619576 -0.18312836 C81.00466586 -0.18616575 83.47313488 -0.1942305 85.94157219 -0.20731354 C89.38740064 -0.22427483 92.83272703 -0.22251817 96.27857971 -0.21600342 C97.82233528 -0.22982559 97.82233528 -0.22982559 99.39727783 -0.243927 C100.3325531 -0.23835785 101.26782837 -0.2327887 102.23144531 -0.22705078 C103.04685508 -0.22851734 103.86226484 -0.2299839 104.702384 -0.2314949 C105.35473805 -0.10875576 106.00709211 0.01398338 106.67921448 0.14044189 C108.67921448 3.14044189 108.67921448 3.14044189 108.67921448 6.14044189 C70.39921448 6.14044189 32.11921448 6.14044189 -7.32078552 6.14044189 C-4.87172098 0.01778055 -4.87172098 0.01778055 0 0 Z " fill="#F90077" transform="translate(9.320785522460938,84.85955810546875)"/>
<path d="M0 0 C2.21140697 0.17267913 4.41983837 0.38541481 6.625 0.625 C8.80870988 0.76735002 10.99307037 0.88454616 13.17822266 1.00244141 C16.32956678 1.17825545 19.47672693 1.40126486 22.625 1.625 C22.625 1.955 22.625 2.285 22.625 2.625 C17.015 2.625 11.405 2.625 5.625 2.625 C4.965 4.275 4.305 5.925 3.625 7.625 C2.47414583 9.52271334 1.28476036 11.39747177 0.0625 13.25 C-1.81249947 16.09563329 -3.2959413 18.38782389 -4.375 21.625 C16.085 21.625 36.545 21.625 57.625 21.625 C55.645 18.325 53.665 15.025 51.625 11.625 C51.625 10.635 51.625 9.645 51.625 8.625 C50.965 8.625 50.305 8.625 49.625 8.625 C48.635 6.645 48.635 6.645 47.625 4.625 C42.015 4.295 36.405 3.965 30.625 3.625 C30.625 3.295 30.625 2.965 30.625 2.625 C35.905 2.625 41.185 2.625 46.625 2.625 C46.625 1.965 46.625 1.305 46.625 0.625 C48.72741603 0.49003749 50.8322961 0.39302693 52.9375 0.3125 C54.10925781 0.25449219 55.28101562 0.19648437 56.48828125 0.13671875 C59.625 0.625 59.625 0.625 61.54296875 3.01953125 C62.625 5.625 62.625 5.625 62.625 7.625 C63.12 8.12 63.615 8.615 64.125 9.125 C64.62 9.62 65.115 10.115 65.625 10.625 C65.625 11.285 65.625 11.945 65.625 12.625 C66.285 12.625 66.945 12.625 67.625 12.625 C67.91375 13.223125 68.2025 13.82125 68.5 14.4375 C69.67242026 16.81827792 69.67242026 16.81827792 71.625 19.625 C71.625 20.615 71.625 21.605 71.625 22.625 C41.925 22.625 12.225 22.625 -18.375 22.625 C-16.59051958 18.16379894 -16.31114508 17.56114508 -13.375 14.625 C-12.69082227 12.96544492 -12.02665907 11.29759161 -11.375 9.625 C-8.81859603 3.84090612 -6.75165929 0.02752035 0 0 Z " fill="#6D5F68" transform="translate(33.375,47.375)"/>
<path d="M0 0 C0.98858505 -0.00978378 1.9771701 -0.01956757 2.99571228 -0.02964783 C6.28252804 -0.05967748 9.56930293 -0.0810074 12.85620117 -0.09985352 C13.97561285 -0.10642534 15.09502453 -0.11299717 16.24835777 -0.11976814 C22.17272045 -0.15239399 28.09706488 -0.17683768 34.02148438 -0.19628906 C38.9348353 -0.21411613 43.84761381 -0.24895486 48.76074219 -0.29882812 C54.68175362 -0.35887236 60.60223335 -0.38974347 66.52353477 -0.39946175 C68.78386297 -0.40804443 71.04417591 -0.42693106 73.30433083 -0.45620537 C76.46524178 -0.49494392 79.62406596 -0.49617713 82.78515625 -0.48828125 C83.72297943 -0.50828186 84.66080261 -0.52828247 85.62704468 -0.54888916 C86.48934189 -0.53919601 87.3516391 -0.52950287 88.24006653 -0.51951599 C88.98726361 -0.52374793 89.7344607 -0.52797987 90.50430012 -0.53234005 C92.58666992 0.20874023 92.58666992 0.20874023 96.58666992 6.20874023 C60.61666992 6.20874023 24.64666992 6.20874023 -12.41333008 6.20874023 C-9.42069798 -1.27284002 -7.43158767 0.04590924 0 0 Z " fill="#3ECFD3" transform="translate(18.413330078125,77.791259765625)"/>
<path d="M0 0 C7.59 0 15.18 0 23 0 C22.67 6.27 22.34 12.54 22 19 C14.74 19 7.48 19 0 19 C0 12.73 0 6.46 0 0 Z " fill="#F4F5E2" transform="translate(338,7)"/>
<path d="M0 0 C0 0.66 0 1.32 0 2 C-0.969375 2.309375 -1.93875 2.61875 -2.9375 2.9375 C-5.84065792 3.69523342 -5.84065792 3.69523342 -7 5 C-7.38707354 8.48366189 -7.50984641 10.31404722 -5.3828125 13.17578125 C-2.27495682 15.55507404 -0.43872279 15.47358601 3.4375 15.375 C5.10619141 15.35566406 5.10619141 15.35566406 6.80859375 15.3359375 C10.67209653 14.929253 13.56284619 13.71857691 17 12 C17 12.99 17 13.98 17 15 C20.3 15 23.6 15 27 15 C27.66 13.35 28.32 11.7 29 10 C30.875 10.625 30.875 10.625 33 12 C33.66 13.98 34.32 15.96 35 18 C14.54 18 -5.92 18 -27 18 C-23.72976499 1.64882496 -15.49498065 -2.08141531 0 0 Z " fill="#E0DED6" transform="translate(56,51)"/>
<path d="M0 0 C2.21140697 0.17267913 4.41983837 0.38541481 6.625 0.625 C8.80870988 0.76735002 10.99307037 0.88454616 13.17822266 1.00244141 C16.32956678 1.17825545 19.47672693 1.40126486 22.625 1.625 C22.625 1.955 22.625 2.285 22.625 2.625 C17.015 2.625 11.405 2.625 5.625 2.625 C4.965 4.275 4.305 5.925 3.625 7.625 C2.3350252 9.69433457 0.9985284 11.73515502 -0.375 13.75 C-1.07625 14.78382812 -1.7775 15.81765625 -2.5 16.8828125 C-3.428125 18.24019531 -3.428125 18.24019531 -4.375 19.625 C-5.035 20.615 -5.695 21.605 -6.375 22.625 C-9.1953125 22.91796875 -9.1953125 22.91796875 -12.5 22.8125 C-13.59570312 22.78542969 -14.69140625 22.75835937 -15.8203125 22.73046875 C-17.08488281 22.67826172 -17.08488281 22.67826172 -18.375 22.625 C-17.07529864 19.17406881 -15.95538376 17.20538376 -13.375 14.625 C-12.69082227 12.96544492 -12.02665907 11.29759161 -11.375 9.625 C-8.81859603 3.84090612 -6.75165929 0.02752035 0 0 Z " fill="#493339" transform="translate(33.375,47.375)"/>
<path d="M0 0 C21.45 0 42.9 0 65 0 C65 0.99 65 1.98 65 3 C65.99 3.495 65.99 3.495 67 4 C64.18784488 5.40607756 61.8595578 5.11950486 58.71435547 5.11352539 C58.07032776 5.11367142 57.42630005 5.11381744 56.76275635 5.1139679 C54.63086598 5.1132704 52.49906263 5.10548566 50.3671875 5.09765625 C48.89031014 5.09579149 47.41343216 5.09436786 45.93655396 5.09336853 C42.04687801 5.08954792 38.15723933 5.07972152 34.26757812 5.06866455 C30.29948429 5.05844064 26.33138445 5.05386881 22.36328125 5.04882812 C14.57550384 5.03809885 6.78775714 5.02102789 -1 5 C-1.33 4.34 -1.66 3.68 -2 3 C-1.34 2.67 -0.68 2.34 0 2 C0 1.34 0 0.68 0 0 Z " fill="#781A4F" transform="translate(28,74)"/>
<path d="M0 0 C3.96 0 7.92 0 12 0 C12 8.25 12 16.5 12 25 C8.37 25 4.74 25 1 25 C-0.27861615 22.44276771 -0.11336609 20.63262898 -0.09765625 17.7734375 C-0.09443359 16.7421875 -0.09121094 15.7109375 -0.08789062 14.6484375 C-0.07951172 13.56820312 -0.07113281 12.48796875 -0.0625 11.375 C-0.05798828 10.28703125 -0.05347656 9.1990625 -0.04882812 8.078125 C-0.0370179 5.38539338 -0.01908205 2.69268991 0 0 Z M5 5 C5 10.28 5 15.56 5 21 C5.99 21 6.98 21 8 21 C8 15.72 8 10.44 8 5 C7.01 5 6.02 5 5 5 Z " fill="#382C44" transform="translate(326,43)"/>
<path d="M0 0 C2.9375 0.375 2.9375 0.375 4.9375 2.375 C6.28574999 6.04189648 6.10557349 9.82162528 6.125 13.6875 C6.13917969 14.96238281 6.15335937 16.23726562 6.16796875 17.55078125 C5.61684783 26.69565217 5.61684783 26.69565217 2.9375 29.375 C0.0625 29.75 0.0625 29.75 -3.0625 29.375 C-6.98946545 24.92505083 -6.51022899 19.91667284 -6.4375 14.3125 C-6.44910156 13.41466797 -6.46070313 12.51683594 -6.47265625 11.59179688 C-6.44377931 5.11855057 -6.44377931 5.11855057 -4.73046875 1.77734375 C-3.0625 0.375 -3.0625 0.375 0 0 Z M-1.0625 4.375 C-2.70322259 7.65644519 -2.20524434 11.27289996 -2.1875 14.875 C-2.19136719 15.66003906 -2.19523437 16.44507813 -2.19921875 17.25390625 C-2.30057619 21.44770323 -2.30057619 21.44770323 -1.0625 25.375 C-0.4025 25.375 0.2575 25.375 0.9375 25.375 C1.86446405 21.44643808 2.07176944 17.78220774 2.0625 13.75 C2.06636719 12.06003906 2.06636719 12.06003906 2.0703125 10.3359375 C2.07009517 7.31711918 2.07009517 7.31711918 0.9375 4.375 C0.2775 4.375 -0.3825 4.375 -1.0625 4.375 Z " fill="#2F213C" transform="translate(484.0625,41.625)"/>
<path d="M0 0 C3.04103566 3.04103566 2.29330847 6.04841086 2.32226562 10.20507812 C2.31904297 11.27177734 2.31582031 12.33847656 2.3125 13.4375 C2.32861328 14.50033203 2.34472656 15.56316406 2.36132812 16.65820312 C2.36197266 17.67720703 2.36261719 18.69621094 2.36328125 19.74609375 C2.36626221 20.68122803 2.36924316 21.6163623 2.37231445 22.57983398 C2 25 2 25 0.66870117 26.82836914 C-1 28 -1 28 -4.0625 28 C-7 27 -7 27 -8.16796875 24.8671875 C-10.32438881 17.43614373 -10.00184893 8.17108355 -7 1 C-4.48718205 -0.25640898 -2.78302919 -0.20872719 0 0 Z M-3 4 C-5.54971958 10.055584 -6.08708012 16.73875963 -4 23 C-3.34 23 -2.68 23 -2 23 C-2 16.73 -2 10.46 -2 4 C-2.33 4 -2.66 4 -3 4 Z " fill="#30223D" transform="translate(610,42)"/>
<path d="M0 0 C5.61 0 11.22 0 17 0 C17.66 1.65 18.32 3.3 19 5 C19.66 5 20.32 5 21 5 C22.25 7.6875 22.25 7.6875 23 11 C21.875 13.875 21.875 13.875 19 16 C14.96705433 16.42255001 11.03955386 16.28581749 7 16 C7 15.34 7 14.68 7 14 C6.01 14 5.02 14 4 14 C4.495 13.62875 4.99 13.2575 5.5 12.875 C7.63328708 10.20839115 7.35330461 8.32106337 7 5 C4.64046906 2.64046906 3.22104383 2.50858587 0 2 C0 1.34 0 0.68 0 0 Z " fill="#DBDBD9" transform="translate(64,51)"/>
<path d="M0 0 C4.17949055 -0.67942457 7.85089218 -0.95191501 12 0 C15.94611687 3.98597664 18.23889033 8.716671 20 14 C13.73 14 7.46 14 1 14 C1.33 12.02 1.66 10.04 2 8 C2.66 8 3.32 8 4 8 C4 7.34 4 6.68 4 6 C3.34 6 2.68 6 2 6 C1.34 4.02 0.68 2.04 0 0 Z " fill="#FAA410" transform="translate(67,26)"/>
<path d="M0 0 C21.12 0 42.24 0 64 0 C64 0.99 64 1.98 64 3 C42.88 3 21.76 3 0 3 C0 2.01 0 1.02 0 0 Z " fill="#E0A8B5" transform="translate(28,71)"/>
<path d="M0 0 C3.30729372 2.49884415 4.80598648 3.94370415 5.5625 8.0625 C5 11 5 11 3.5 13.375 C-0.01077404 15.65700312 -2.92470662 15.81004807 -7 15 C-9.5 13.4375 -9.5 13.4375 -11 11 C-11.25 7.25 -11.25 7.25 -11 4 C-8.525 4.495 -8.525 4.495 -6 5 C-6.33 3.68 -6.66 2.36 -7 1 C-4.35955695 -0.32022153 -2.93650531 -0.40974493 0 0 Z " fill="#FCF9EE" transform="translate(63,26)"/>
<path d="M0 0 C1.47919922 0.06960937 1.47919922 0.06960937 2.98828125 0.140625 C3.98214844 0.17671875 4.97601563 0.2128125 6 0.25 C7.13888672 0.31960937 7.13888672 0.31960937 8.30078125 0.390625 C7.78515625 1.215625 7.26953125 2.040625 6.73828125 2.890625 C4.7120622 7.00783562 4.7120622 7.00783562 6.30078125 14.390625 C0.69078125 14.390625 -4.91921875 14.390625 -10.69921875 14.390625 C-9.20129658 10.64581957 -7.83827897 7.72755895 -5.69921875 4.390625 C-5.08433594 3.33294922 -5.08433594 3.33294922 -4.45703125 2.25390625 C-2.69921875 0.390625 -2.69921875 0.390625 0 0 Z " fill="#FDA710" transform="translate(44.69921875,25.609375)"/>
<path d="M0 0 C1.30582031 -0.02900391 2.61164062 -0.05800781 3.95703125 -0.08789062 C5.20613281 -0.09626953 6.45523438 -0.10464844 7.7421875 -0.11328125 C9.46864502 -0.13515503 9.46864502 -0.13515503 11.22998047 -0.1574707 C14.125 0.3125 14.125 0.3125 16.02392578 2.21411133 C17.125 4.3125 17.125 4.3125 17.125 6.3125 C5.905 6.3125 -5.315 6.3125 -16.875 6.3125 C-13.4518827 -2.24529325 -8.5725449 0.06309528 0 0 Z " fill="#FA6722" transform="translate(59.875,18.6875)"/>
<path d="M0 0 C1.59424805 -0.04350586 1.59424805 -0.04350586 3.22070312 -0.08789062 C4.74920898 -0.10045898 4.74920898 -0.10045898 6.30859375 -0.11328125 C7.24372803 -0.12786377 8.1788623 -0.14244629 9.14233398 -0.1574707 C11.5625 0.3125 11.5625 0.3125 13.39086914 2.21411133 C14.5625 4.3125 14.5625 4.3125 14.5625 6.3125 C5.3225 6.3125 -3.9175 6.3125 -13.4375 6.3125 C-13.4375 4.6625 -13.4375 3.0125 -13.4375 1.3125 C-9.4350102 -0.6887449 -4.4007983 0.03988639 0 0 Z " fill="#F7A40B" transform="translate(76.4375,40.6875)"/>
<path d="M0 0 C2.35428778 -0.05282225 4.70411556 -0.08744891 7.05908203 -0.08007812 C8.28304687 -0.12261719 8.28304687 -0.12261719 9.53173828 -0.16601562 C15.53726441 -0.18560951 15.53726441 -0.18560951 18.75439453 2.82617188 C20.18408203 5.41992188 20.18408203 5.41992188 20.18408203 7.41992188 C11.93408203 7.41992188 3.68408203 7.41992188 -4.81591797 7.41992188 C-3.14261603 0.72671411 -3.14261603 0.72671411 0 0 Z " fill="#F50053" transform="translate(52.81591796875,10.580078125)"/>
<path d="M0 0 C3.62498334 -0.02893932 7.24993713 -0.04677792 10.875 -0.0625 C12.42380859 -0.07506836 12.42380859 -0.07506836 14.00390625 -0.08789062 C14.99003906 -0.09111328 15.97617187 -0.09433594 16.9921875 -0.09765625 C18.35899658 -0.10551147 18.35899658 -0.10551147 19.75341797 -0.11352539 C22 0 22 0 24 1 C24 2.65 24 4.3 24 6 C15.09 6 6.18 6 -3 6 C-2.01 4.02 -1.02 2.04 0 0 Z " fill="#FAA60B" transform="translate(32,41)"/>
<path d="M0 0 C1.85625 0.1546875 1.85625 0.1546875 3.75 0.3125 C3.97036864 4.16895121 3.35355101 6.80473216 1.75 10.3125 C1.09 10.3125 0.43 10.3125 -0.25 10.3125 C-0.58 9.6525 -0.91 8.9925 -1.25 8.3125 C-3.27463255 7.66036708 -3.27463255 7.66036708 -5.25 7.3125 C-4.15213575 12.72037385 -4.15213575 12.72037385 -0.25 16.3125 C-3.55 16.3125 -6.85 16.3125 -10.25 16.3125 C-11.69703511 11.97139467 -10.12721728 9.33287367 -8.25 5.3125 C-5.95076151 1.22496491 -4.59806386 0.02432838 0 0 Z " fill="#FBFCED" transform="translate(44.25,51.6875)"/>
<path d="M0 0 C2.475 0.495 2.475 0.495 5 1 C5.495 9.415 5.495 9.415 6 18 C4.02 18 2.04 18 0 18 C-0.33 15.03 -0.66 12.06 -1 9 C-6.61 9 -12.22 9 -18 9 C-18 8.67 -18 8.34 -18 8 C-12.06 8 -6.12 8 0 8 C0 5.36 0 2.72 0 0 Z " fill="#615467" transform="translate(57,42)"/>
<path d="M0 0 C2.64 0 5.28 0 8 0 C8.33 1.32 8.66 2.64 9 4 C8.34 4 7.68 4 7 4 C7 4.66 7 5.32 7 6 C8.32 6.66 9.64 7.32 11 8 C10.67 9.65 10.34 11.3 10 13 C6.625 13.125 6.625 13.125 3 13 C2.34 12.34 1.68 11.68 1 11 C1 9.68 1 8.36 1 7 C1.66 7 2.32 7 3 7 C2.505 6.5875 2.01 6.175 1.5 5.75 C0 4 0 4 0 0 Z " fill="#845476" transform="translate(73,54)"/>
<path d="M0 0 C3.70979513 -0.28782893 7.29904165 -0.44198495 11 0 C13.6875 2.375 13.6875 2.375 15 5 C15 5.66 15 6.32 15 7 C10.05 7 5.1 7 0 7 C0 4.69 0 2.38 0 0 Z " fill="#40CED3" transform="translate(95,70)"/>
<path d="M0 0 C1.875 0.625 1.875 0.625 4 2 C4.66 3.98 5.32 5.96 6 8 C-3.57 8 -13.14 8 -23 8 C-19.75888607 5.56916455 -17.66401158 4.349899 -14 3 C-13.34 2.67 -12.68 2.34 -12 2 C-12 2.99 -12 3.98 -12 5 C-8.7 5 -5.4 5 -2 5 C-1.34 3.35 -0.68 1.7 0 0 Z " fill="#EDEDE8" transform="translate(85,61)"/>
<path d="M0 0 C0.90105469 0.02707031 1.80210938 0.05414063 2.73046875 0.08203125 C3.76107422 0.13423828 3.76107422 0.13423828 4.8125 0.1875 C5.1425 2.4975 5.4725 4.8075 5.8125 7.1875 C0.8625 7.1875 -4.0875 7.1875 -9.1875 7.1875 C-7.69859211 1.23186843 -6.12461361 -0.23862131 0 0 Z " fill="#40CDD2" transform="translate(20.1875,69.8125)"/>
<path d="M0 0 C0.66 0.33 1.32 0.66 2 1 C1.938125 2.11375 1.87625 3.2275 1.8125 4.375 C1.874375 5.57125 1.93625 6.7675 2 8 C5.68228915 10.45485943 8.72454348 10.82932584 13 10 C15.3894658 8.55625961 17.00320659 6.99679341 19 5 C18.7477201 8.11145209 18.44031706 9.58903741 16.125 11.75 C11.47891469 13.60843413 7.00543721 14.36771578 2 14 C-1.1875 11.9375 -1.1875 11.9375 -3 9 C-3.5 5.875 -3.5 5.875 -3 3 C-1.5 1.125 -1.5 1.125 0 0 Z " fill="#615669" transform="translate(51,53)"/>
<path d="M0 0 C0.66 0 1.32 0 2 0 C2 1.65 2 3.3 2 5 C8.27 5 14.54 5 21 5 C20.01 5.495 20.01 5.495 19 6 C19 6.66 19 7.32 19 8 C13.72 8 8.44 8 3 8 C3 8.99 3 9.98 3 11 C3.66 11 4.32 11 5 11 C5 11.99 5 12.98 5 14 C4.34 14 3.68 14 3 14 C3 14.99 3 15.98 3 17 C2.34 17 1.68 17 1 17 C0.67 11.39 0.34 5.78 0 0 Z " fill="#321D30" transform="translate(61,42)"/>
<path d="M0 0 C1.93627769 -0.10807131 3.87427756 -0.1856225 5.8125 -0.25 C7.43091797 -0.31960937 7.43091797 -0.31960937 9.08203125 -0.390625 C12 0 12 0 13.88671875 1.828125 C15 4 15 4 15 7 C13.20841511 7.02696365 11.41671527 7.04637917 9.625 7.0625 C8.62726563 7.07410156 7.62953125 7.08570313 6.6015625 7.09765625 C4 7 4 7 2 6 C1.27306096 4.02111039 0.60183749 2.02045442 0 0 Z " fill="#F4741A" transform="translate(67,26)"/>
<path d="M0 0 C1.47919922 0.06960937 1.47919922 0.06960937 2.98828125 0.140625 C3.98214844 0.17671875 4.97601563 0.2128125 6 0.25 C7.13888672 0.31960937 7.13888672 0.31960937 8.30078125 0.390625 C6.98078125 3.030625 5.66078125 5.670625 4.30078125 8.390625 C1.00078125 8.060625 -2.29921875 7.730625 -5.69921875 7.390625 C-5.69921875 4.390625 -5.69921875 4.390625 -4.5546875 2.21875 C-2.69921875 0.390625 -2.69921875 0.390625 0 0 Z " fill="#F4741A" transform="translate(44.69921875,25.609375)"/>
<path d="M0 0 C1.76949095 -0.10815225 3.54087487 -0.18566083 5.3125 -0.25 C6.29863281 -0.29640625 7.28476563 -0.3428125 8.30078125 -0.390625 C11 0 11 0 12.85546875 1.828125 C14 4 14 4 14 7 C10.61897078 7.29035556 7.37177161 7.4386474 4 7 C1.375 4.625 1.375 4.625 0 2 C0 1.34 0 0.68 0 0 Z " fill="#CDC62D" transform="translate(91,63)"/>
<path d="M0 0 C1.6026782 -0.10824843 3.20745748 -0.18570645 4.8125 -0.25 C5.70582031 -0.29640625 6.59914063 -0.3428125 7.51953125 -0.390625 C10 0 10 0 11.82421875 1.890625 C13 4 13 4 13 6 C7.72 6 2.44 6 -3 6 C-2.01 4.02 -1.02 2.04 0 0 Z " fill="#E90051" transform="translate(55,4)"/>
<path d="M0 0 C3.70792809 -0.28328822 7.30204313 -0.45269973 11 0 C13.26297338 2.45694253 14 3.6796254 14 7 C10.61897078 7.29035556 7.37177161 7.4386474 4 7 C1.375 4.625 1.375 4.625 0 2 C0 1.34 0 0.68 0 0 Z " fill="#F58314" transform="translate(82,48)"/>
<path d="M0 0 C2.3828125 -0.29296875 2.3828125 -0.29296875 5.125 -0.1875 C6.03507812 -0.16042969 6.94515625 -0.13335937 7.8828125 -0.10546875 C8.58148438 -0.07066406 9.28015625 -0.03585938 10 0 C8.79618552 2.49361571 7.54571278 4.68143083 6 7 C3.6171875 7.29296875 3.6171875 7.29296875 0.875 7.1875 C-0.03507812 7.16042969 -0.94515625 7.13335937 -1.8828125 7.10546875 C-2.58148437 7.07066406 -3.28015625 7.03585938 -4 7 C-2.79618552 4.50638429 -1.54571278 2.31856917 0 0 Z " fill="#F48214" transform="translate(28,48)"/>
<path d="M0 0 C3.3 0 6.6 0 10 0 C8.125 4.75 8.125 4.75 7 7 C3.7 7 0.4 7 -3 7 C-1.125 2.25 -1.125 2.25 0 0 Z " fill="#D0C92D" transform="translate(18,63)"/>
<path d="M0 0 C0.33 0 0.66 0 1 0 C1 1.65 1 3.3 1 5 C5.64398011 6.54799337 10.32517708 6.49594333 15 5 C15.33 3.68 15.66 2.36 16 1 C16.31424507 4.45669582 16.37956836 6.39901677 14.5 9.375 C10.98922596 11.65700312 8.07529338 11.81004807 4 11 C1.5 9.4375 1.5 9.4375 0 7 C-0.25 3.25 -0.25 3.25 0 0 Z " fill="#B4738C" transform="translate(52,30)"/>
<path d="M0 0 C3.63 0 7.26 0 11 0 C11.33 1.32 11.66 2.64 12 4 C12.66 4 13.32 4 14 4 C14 4.66 14 5.32 14 6 C12.23050905 6.10815225 10.45912513 6.18566083 8.6875 6.25 C7.70136719 6.29640625 6.71523437 6.3428125 5.69921875 6.390625 C3 6 3 6 1.14453125 4.109375 C0 2 0 2 0 0 Z " fill="#F58815" transform="translate(87,56)"/>
<path d="M0 0 C1.37478516 0.01740234 1.37478516 0.01740234 2.77734375 0.03515625 C3.69644531 0.04417969 4.61554687 0.05320313 5.5625 0.0625 C6.27277344 0.07410156 6.98304687 0.08570313 7.71484375 0.09765625 C6.72484375 2.07765625 5.73484375 4.05765625 4.71484375 6.09765625 C1.41484375 6.09765625 -1.88515625 6.09765625 -5.28515625 6.09765625 C-2.98903326 0.12773646 -2.98903326 0.12773646 0 0 Z " fill="#F38715" transform="translate(25.28515625,55.90234375)"/>
<path d="M0 0 C0 0.66 0 1.32 0 2 C-0.94875 2.309375 -1.8975 2.61875 -2.875 2.9375 C-5.86080408 3.87394742 -5.86080408 3.87394742 -8 5 C-8 3.68 -8 2.36 -8 1 C-10.64 1 -13.28 1 -16 1 C-16.2475 1.53625 -16.495 2.0725 -16.75 2.625 C-20.85714286 10.42857143 -20.85714286 10.42857143 -24 12 C-23.3125 9.9375 -23.3125 9.9375 -22 7 C-21.78601562 6.37609375 -21.57203125 5.7521875 -21.3515625 5.109375 C-17.50757904 -2.97284663 -7.5586819 -0.52502421 0 0 Z " fill="#DCD9D2" transform="translate(56,51)"/>
<path d="M0 0 C0.99 0 1.98 0 3 0 C3 4.95 3 9.9 3 15 C2.01 15 1.02 15 0 15 C0 10.05 0 5.1 0 0 Z " fill="#D1CFD3" transform="translate(58,43)"/>
<path d="M0 0 C0.66 0 1.32 0 2 0 C2.70125 0.825 3.4025 1.65 4.125 2.5 C7.21414614 5.18621404 8.91028686 5.74040113 12.99609375 5.5078125 C16.52121611 4.61450664 18.46061599 2.53938401 21 0 C20.6875 2.375 20.6875 2.375 20 5 C15.33734965 8.10843357 10.46013742 7.61077009 5 7 C1.75 5.1875 1.75 5.1875 0 3 C0 2.01 0 1.02 0 0 Z " fill="#C2C6C7" transform="translate(49,58)"/>
<path d="M0 0 C0.66 0 1.32 0 2 0 C2.33 1.32 2.66 2.64 3 4 C4.98 4 6.96 4 9 4 C9.33 3.01 9.66 2.02 10 1 C10.66 1 11.32 1 12 1 C12 2.65 12 4.3 12 6 C8.8181784 7.5909108 5.46363796 7.39584434 2 7 C-0.0625 5.75 -0.0625 5.75 -1 4 C-0.6875 1.8125 -0.6875 1.8125 0 0 Z " fill="#D20759" transform="translate(54,55)"/>
<path d="M0 0 C1.32 0.66 2.64 1.32 4 2 C4 2.99 4 3.98 4 5 C2.35 4.67 0.7 4.34 -1 4 C-0.835 5.093125 -0.67 6.18625 -0.5 7.3125 C0 11 0 11 0 14 C-0.66 14 -1.32 14 -2 14 C-3.76165803 8.89119171 -3.76165803 8.89119171 -4 6 C-2.125 2.5 -2.125 2.5 0 0 Z " fill="#5D4547" transform="translate(53,26)"/>
<path d="M0 0 C0.99 0.33 1.98 0.66 3 1 C2.67 2.65 2.34 4.3 2 6 C-0.31 6 -2.62 6 -5 6 C-5.33 4.35 -5.66 2.7 -6 1 C-3.03 1.495 -3.03 1.495 0 2 C0 1.34 0 0.68 0 0 Z " fill="#6A3557" transform="translate(81,61)"/>
<path d="M0 0 C0.66 1.32 1.32 2.64 2 4 C2.66 4 3.32 4 4 4 C4.66 5.98 5.32 7.96 6 10 C5.01 10.99 4.02 11.98 3 13 C2.71125 12.360625 2.4225 11.72125 2.125 11.0625 C1.17176549 8.84793921 1.17176549 8.84793921 -1 8 C-1 7.34 -1 6.68 -1 6 C-0.34 6 0.32 6 1 6 C0.67 5.01 0.34 4.02 0 3 C-2.31 2.67 -4.62 2.34 -7 2 C-7 1.67 -7 1.34 -7 1 C-3.535 0.505 -3.535 0.505 0 0 Z " fill="#BEB7BC" transform="translate(81,52)"/>
<path d="M0 0 C0 2.64 0 5.28 0 8 C-0.66 8 -1.32 8 -2 8 C-2.33 6.02 -2.66 4.04 -3 2 C-7.29 2 -11.58 2 -16 2 C-16 1.67 -16 1.34 -16 1 C-13.70839646 0.83246763 -11.41671509 0.66599948 -9.125 0.5 C-7.84882812 0.4071875 -6.57265625 0.314375 -5.2578125 0.21875 C-3.50763316 0.10123196 -1.75412035 0 0 0 Z " fill="#343C53" transform="translate(95,69)"/>
<path d="M0 0 C2.3125 1.25 2.3125 1.25 4 3 C4 4.32 4 5.64 4 7 C3.34 7 2.68 7 2 7 C1.34 6.01 0.68 5.02 0 4 C-2.55183404 2.79549696 -2.55183404 2.79549696 -5 2 C-5.33 2.99 -5.66 3.98 -6 5 C-6.33 3.68 -6.66 2.36 -7 1 C-4.4362736 -0.2818632 -2.84782869 -0.27122178 0 0 Z " fill="#D9D6D6" transform="translate(63,26)"/>
<path d="M0 0 C4.29 0.33 8.58 0.66 13 1 C13 1.33 13 1.66 13 2 C9.7 2 6.4 2 3 2 C3.33 3.98 3.66 5.96 4 8 C3.01 8 2.02 8 1 8 C0 6 0 6 0 0 Z " fill="#343B52" transform="translate(25,69)"/>
<path d="M0 0 C0.78503906 0.00515625 1.57007813 0.0103125 2.37890625 0.015625 C3.55259766 0.00789063 3.55259766 0.00789063 4.75 0 C6.94140625 0.265625 6.94140625 0.265625 9.94140625 2.265625 C9.61140625 2.925625 9.28140625 3.585625 8.94140625 4.265625 C4.56206506 3.74604215 0.25337234 3.20886758 -4.05859375 2.265625 C-2.05859375 0.265625 -2.05859375 0.265625 0 0 Z " fill="#3B283E" transform="translate(57.05859375,23.734375)"/>
<path d="M0 0 C1 3 1 3 1 5 C2.32 5.66 3.64 6.32 5 7 C2.03 7 -0.94 7 -4 7 C-3.6875 4.625 -3.6875 4.625 -3 2 C-2.01 1.34 -1.02 0.68 0 0 Z " fill="#E7E6E0" transform="translate(33,62)"/>
<path d="M0 0 C1.32 0 2.64 0 4 0 C4 1.98 4 3.96 4 6 C3.67 4.68 3.34 3.36 3 2 C2.34 2 1.68 2 1 2 C1 3.98 1 5.96 1 8 C1.66 8.33 2.32 8.66 3 9 C1.68 8.67 0.36 8.34 -1 8 C-1.04241723 5.66705225 -1.04092937 3.33297433 -1 1 C-0.67 0.67 -0.34 0.34 0 0 Z " fill="#491D3E" transform="translate(53,53)"/>
<path d="M0 0 C2.31 0 4.62 0 7 0 C7.33 1.32 7.66 2.64 8 4 C5.36 3.67 2.72 3.34 0 3 C0 2.01 0 1.02 0 0 Z " fill="#6C2954" transform="translate(74,54)"/>
<path d="M0 0 C1.875 0.3125 1.875 0.3125 4 1 C4.66 1.99 5.32 2.98 6 4 C5.34 5.32 4.68 6.64 4 8 C1.44971017 6.72485508 1.06918289 5.59658703 0 3 C0 2.01 0 1.02 0 0 Z " fill="#6E6574" transform="translate(66,53)"/>
<path d="M0 0 C2.3828125 0.2421875 2.3828125 0.2421875 5.125 0.875 C6.03507812 1.07867187 6.94515625 1.28234375 7.8828125 1.4921875 C8.58148438 1.65976562 9.28015625 1.82734375 10 2 C9.34 2.66 8.68 3.32 8 4 C7.01 4 6.02 4 5 4 C4.34 5.32 3.68 6.64 3 8 C3 6.35 3 4.7 3 3 C1.35 2.67 -0.3 2.34 -2 2 C-1.34 1.34 -0.68 0.68 0 0 Z " fill="#4A3C3C" transform="translate(53,39)"/>
<path d="M0 0 C3.3 0 6.6 0 10 0 C9.01 1.485 9.01 1.485 8 3 C5 3.375 5 3.375 2 3 C1.34 2.01 0.68 1.02 0 0 Z " fill="#F43C80" transform="translate(55,37)"/>
<path d="M0 0 C0.33 0.99 0.66 1.98 1 3 C1.99 3 2.98 3 4 3 C4 3.99 4 4.98 4 6 C3.34 6 2.68 6 2 6 C2 6.99 2 7.98 2 9 C1.34 9 0.68 9 0 9 C0 6.03 0 3.06 0 0 Z " fill="#3E1538" transform="translate(62,50)"/>
<path d="M0 0 C2.475 0.99 2.475 0.99 5 2 C4.34 3.32 3.68 4.64 3 6 C2.01 5.67 1.02 5.34 0 5 C0 3.35 0 1.7 0 0 Z " fill="#F1E3E2" transform="translate(53,30)"/>
<path d="M0 0 C0 0.66 0 1.32 0 2 C-0.94875 2.309375 -1.8975 2.61875 -2.875 2.9375 C-5.86080408 3.87394742 -5.86080408 3.87394742 -8 5 C-8 3.68 -8 2.36 -8 1 C-5.07175348 0.02391783 -3.04386724 -0.08226668 0 0 Z " fill="#E2E0E0" transform="translate(56,51)"/>
<path d="M0 0 C0.33 0 0.66 0 1 0 C1.36923077 5.53846154 1.36923077 5.53846154 -0.5 7.875 C-1.2425 8.431875 -1.2425 8.431875 -2 9 C-2.66 8.67 -3.32 8.34 -4 8 C-3.67 6.68 -3.34 5.36 -3 4 C-2.01 4 -1.02 4 0 4 C0 2.68 0 1.36 0 0 Z " fill="#C1869E" transform="translate(67,31)"/>
<path d="M0 0 C1.65 0 3.3 0 5 0 C5.33 0.99 5.66 1.98 6 3 C3.69 3 1.38 3 -1 3 C-0.67 2.01 -0.34 1.02 0 0 Z " fill="#EB0152" transform="translate(58,0)"/>
<path d="M0 0 C0.66 0 1.32 0 2 0 C2 0.66 2 1.32 2 2 C3.65 2 5.3 2 7 2 C7 2.66 7 3.32 7 4 C4.69 4 2.38 4 0 4 C0 2.68 0 1.36 0 0 Z " fill="#4A2B47" transform="translate(75,62)"/>
<path d="M0 0 C2.31 0 4.62 0 7 0 C6.34 1.65 5.68 3.3 5 5 C3.35 3.35 1.7 1.7 0 0 Z " fill="#F3F3F2" transform="translate(68,52)"/>
<path d="M0 0 C0.33 1.32 0.66 2.64 1 4 C-2.75 7 -2.75 7 -5 7 C-3.88820837 3.66462511 -2.52588702 2.36292656 0 0 Z " fill="#BEBFC0" transform="translate(69,58)"/>
</svg>
